<svg version="1" xmlns="http://www.w3.org/2000/svg" width="4444" height="4444" viewBox="0 0 3333.000000 3333.000000"><path d="M1300.5 721.7c-11.4.6-34.1 3.4-47.5 5.9-80.3 14.8-154.6 54.8-212.1 114.1C973.9 910.9 935.2 997 928 1093c-.5 7.4-1 16.9-1 20.9 0 4.1-.5 11.1-1.1 15.5-.8 6.1-.5 44.1 1.4 153.1 2.2 128.8 2.3 145.1 1 146.2-1.6 1.3-12.2 1-13.2-.4-.3-.4-1.7-.9-3-1.1-3.3-.3-14.1-5.3-14.1-6.4 0-.5-.4-.6-1-.3-.5.3-1 .2-1-.3s-1.1-1.4-2.4-2c-2.9-1.3-2.8-1.4-5.2 9.9-1.7 8.5-2.3 13.9-1.4 13.9.5 0 3.1 13.2 3.3 17.2.1.9.4 1.5.8 1.2.4-.2 1 .6 1.4 1.8.3 1.3 1.1 3.3 1.8 4.6.9 1.9.8 2.5-.3 3.3-.8.5-2.1.7-2.8.4-.8-.3-1 0-.6.7.5.8.2.9-1 .5-1-.4-1.5-.3-1.1.3.8 1.2-14.7 6.1-21.7 6.7l-5.7.6 2.6 5.1c1.4 2.8 4 7.1 5.7 9.6 1.7 2.5 3.1 4.7 3.1 5 0 .9 11.7 12 13.6 13.1 1.1.6 1.7 1.5 1.3 2.2-.4.7-.4.9.1.5.9-.8 6.5 2.2 6.5 3.5 0 .4.5.5 1 .2.6-.3 1.3.1 1.6.9.3.9 1 1.3 1.5 1 .5-.3.9-.1.9.3 0 .5 1 1 2.2 1 1.3.1 2.4.7 2.6 1.3.2.5.8.8 1.3.4.5-.3.9 0 .9.6s.4.9.9.5c.5-.3 2-.1 3.3.4 5 2 6.4 2.4 7.7 2.2.7-.1 1 .2.7.7-.3.5.6.8 2 .6 5.4-.6 5.3-1.2 5 26.9-.5 46.3-.4 120.8 0 133.7.9 23.1 1.2 30.1 1.8 33.8.3 2 .8 9.1 1.1 15.6.3 6.6.7 12.2.9 12.5.5.8 2 19.3 2 25.8.1 2.8.4 4.9.8 4.7.4-.3.7 1.5.7 3.8 0 2.4.4 6.7.9 9.5.4 2.9.8 6.6.7 8.3-.1 1.6.2 3 .7 3 .5 0 .8 1.2.8 2.7 0 1.6.8 8.4 2 15.3 1.1 6.9 1.9 13.4 1.9 14.5-.1 1.1 0 2.2.1 2.5.6 1.6 1.1 5 1.3 8.2.1 2.1.5 3.8.9 3.8.3 0 .5 1.3.4 2.9-.1 1.7.2 2.8.6 2.5.4-.3.8.5.7 1.8 0 1.3.7 5.6 1.5 9.7.9 4.1 1.4 7.7 1.1 7.9-.3.3 0 1.1.6 1.8s1.1 3.5 1.2 6.2c.1 2.8.5 4.8.9 4.6.4-.3.7.4.7 1.3 0 1 .4 3.6.9 5.8.6 2.2 1.3 5.3 1.6 7 .3 1.6.9 4.6 1.4 6.5.5 1.9.8 4.5.7 5.7-.1 1.2.3 1.9.8 1.6.6-.4.8.3.5 1.5-.4 1.2-.2 2.5.4 2.8.5.3.8 1.5.5 2.5-.3 1.1-.1 1.9.5 1.9s.8.9.5 2c-.3 1.1-.1 2 .5 2s.8.9.5 2c-.3 1.1-.2 2 .2 2 .8 0 3.4 10.1 2.9 11.6-.1.5.4 1.9 1.1 3.2.7 1.3 1.3 3.9 1.4 5.8.1 1.9.5 3.4 1 3.4.4 0 .7.8.7 1.7 0 1 .7 3.8 1.6 6.3.8 2.4 1.7 5.8 1.8 7.6.2 1.7.6 3.6 1 4.3.4.6.4 1.6 0 2.3-.4.6-.3.8.3.5 1.1-.7 4.7 10.9 3.8 12.4-.4.5-.2.9.3.9 1.2 0 3.4 7.8 2.6 9.2-.4.7-.3.8.4.4.8-.4 1.2.1 1.3 1.3.2 2.4.3 3 1.3 5.3.4.9.4 2.2 0 2.9-.5.8-.3.9.6.4 1-.6 1.2-.4.7.7-.3.9-.1 2 .4 2.5 1.3 1.3 4.9 12.6 4.3 13.5-.3.4-.1.8.4.8s.9.7 1 1.5c.1.8.3 2.2.4 3 .1.8.4 1.5.8 1.5.9 0 3 7.1 2.4 8.2-.3.4 0 .8.5.8.6 0 1 .3.9.7 0 .5.6 2.5 1.6 4.6.9 2.1 1.4 4.2 1.1 4.7-.4.6-.2 1 .4 1 .5 0 .8.9.6 2-.2 1.1 0 1.8.4 1.6.9-.6 8.1 18.1 8.4 21.4.1 1.1.4 2 .7 2 .6 0 3.4 6.8 3.5 8.5.1.5.7 2.1 1.5 3.5 1.7 3 6 12.9 6.5 15 .2.8.4 1.7.5 2 .1.3.2.8.1 1.2 0 .5.4.8 1 .8.5 0 .7.4.4 1-.3.5-.2 1 .4 1 1 0 2.7 5.7 2.2 7.5-.1.5.1.7.4.3.9-.9 11.7 21.8 12 25 .1 1.3.6 2.7 1.2 3 1.5 1 10.3 18.9 9.6 19.6-.4.3-.1.6.6.6.8 0 1.1.6.7 1.6-.4 1-.2 1.3.6.8s.9-.2.5 1c-.4 1-.3 1.5.3 1.1.9-.6 1.4.8 1.1 2.7 0 .5.3.8.7.8 1.2 0 3.3 5 2.7 6.1-.4.5-.2.9.3.9 1 0 4.3 4.5 4.6 6.4.1.6 1 2.3 2 3.8s1.4 3.3 1 3.9c-.4.8-.3.9.4.5s1.2-.1 1.2.8.4 1.6.9 1.6 1.4 1.5 2.1 3.2c.8 1.8 2 4.1 2.8 5 .8.9 1.1 2.2.7 2.7-.3.6.1 1.4.9 1.7.9.3 1.6 1 1.6 1.6 0 .5.7 1.6 1.5 2.5.8.8 1.3 1.9 1 2.4-.4.5-.2.9.2.9 1.4 0 4.5 5.9 3.7 7.2-.4.6-.3.8.3.5 1.1-.7 8.9 12.2 8.5 14.2-.2.7.1 1 .7.6 1.3-.7 3.2 3.5 2.3 5-.3.5-.2.7.3.3.8-.8 4.6 3.4 4.9 5.5.1.7 1.1 2.3 2.2 3.6 1.2 1.2 3 3.8 4 5.9 1.1 2 2.7 4.5 3.7 5.6.9 1.1 1.7 2.3 1.7 2.7 0 .4 2.5 4.1 5.5 8.1s5.3 7.9 5 8.6c-.3.7-.1 1.1.4.8.8-.5 4.5 4 4.6 5.4 0 .3 1.2 1.9 2.8 3.5 1.5 1.6 2.7 3.5 2.7 4.2 0 .6.3 1.3.8 1.5 1.7.7 5.1 6.1 4.5 7.1-.3.6-.1.7.5.3.7-.4 1.2-.1 1.2.8 0 .8.6 1.9 1.4 2.3 2 1.2 13.5 16.6 13 17.5-.2.3.1 1 .7 1.4.8.5.9.3.4-.6-.6-.9-.4-1.1.4-.6.7.5 1 1.4.7 2.2-.3.7 0 1.6.6 2 .7.5.8.2.3-.7-.4-.8.2-.4 1.4.8 1.1 1.2 2 2.8 1.9 3.5-.2.7.4 1.2 1.2 1.3.8 0 2.4 1.4 3.6 3.2 1.1 1.7 2.8 3.9 3.8 4.8.9.9 1.3 2.1 1 2.7-.4.6-.2.8.4.4.5-.3 2.5 1.3 4.3 3.6 1.9 2.4 3.9 4.7 4.6 5.1.7.4 1.3 1.3 1.3 2s.9 1.8 2 2.5c1.2.7 1.8 1.8 1.4 2.4-.4.6-.3.8.3.5 1.1-.7 7 6.2 6.5 7.5-.1.5.2.7.7.5 1.2-.3 7.3 6.2 6.7 7.2-.3.4.6 1.3 2 2 1.4.6 2.2 1.6 1.9 2.1-.4.6-.3.9.2.8 1.4-.5 8.3 6.4 7.6 7.5-.3.6-.1.7.4.4.6-.4 2.7 1.2 4.6 3.6 4.3 5.2 15.2 16.4 14.2 14.6-.5-.8.6-.1 2.3 1.5 1.7 1.6 3 3.4 2.9 4-.1.6.3 1 .9.9.7-.1 3.2 2 5.7 4.7 2.6 2.8 5 5 5.5 5 1.3 0 5.3 4.5 4.7 5.3-.3.4-.2.5.1.2 1-.7 9.4 6.6 8.8 7.6-.3.5-.1.8.4.7.5-.2 1.9.8 3.1 2.2 1.3 1.4 1.9 1.8 1.5 1-.5-.8 2 .9 5.4 3.9 3.4 2.9 5.9 5.8 5.5 6.4-.4.6-.1.7.7.2.8-.5 2.1.2 3.5 1.9 1.3 1.5 2.6 2.7 2.9 2.6 1.4-.2 7.5 5.3 6.9 6.3-.3.6-.1.7.6.3.7-.5 2.4.6 4.3 2.6 1.7 1.8 2.8 2.7 2.3 1.9-.5-.8.8-.2 2.8 1.3 2 1.6 3.5 3.2 3.2 3.6-.3.4.3.7 1.3.6.9 0 1.6.5 1.5 1.2-.2.6.5 1.2 1.5 1.2.9 0 2.8 1 4.2 2.3 1.4 1.3 3.3 2.6 4.3 3 1.1.4 1.5 1.2 1.1 1.8-.4.7-.3.9.3.6 1.3-.8 6.5 2.7 5.6 3.8-.5.4-.3.5.4.2.6-.4 1.7-.1 2.5.6.7.8 4.4 3.3 8.1 5.6 3.8 2.5 6.4 4.7 6 5.3-.3.7-.1.8.6.4 1.5-1 8.3 3.3 7.5 4.6-.4.7-.2.8.4.4 1.5-.9 5.5 1.8 4.4 2.9-.4.5-.2.5.5.1 1.2-.7 6.1 1.8 7.5 3.8.3.5 1.3 1 2 1.2 1.8.2 12.1 6.5 13 7.8.5.7.8.7.8.1 0-.7.3-.7.8 0 .4.5 3.4 2.3 6.6 4 10 5.1 11.7 6.1 11.2 6.6-.3.3.4.6 1.5.6 1.2.1 3.3 1 4.7 2 2.7 1.7 3.1 1.9 5.3 2.2.5 0 .7.6.3 1.3-.4.6-.3.8.3.5 1.4-.9 8.6 2.7 7.6 3.8-.4.4-.3.5.4.2 1.6-1 17.4 6.3 16.6 7.6-.4.6 0 .8 1 .4 1.9-.7 6.7 1.1 6.7 2.5 0 .5.5.6 1 .3.6-.4 1.6-.3 2.3.3.7.5 4 1.9 7.4 3.2 3.7 1.3 6 2.7 5.6 3.3-.3.6-.1.7.6.3 1.4-.9 11.1 2.4 11.1 3.7 0 .4.4.6.8.3 1.3-.8 13.3 3.9 12.5 4.9-.5.4-.2.5.5.1 1.3-.8 17.5 4.1 18 5.4.2.5 1.2.6 2.2.3 1.1-.3 2 0 2 .6s.3 1 .8 1c.4-.1.9-.1 1.2 0 .3.2 2.1.4 3.9.7 1.9.2 3.7.8 4 1.2.4.4 1.7.8 3.1 1 1.4.2 5 1 8 1.8s6.6 1.7 8 2c1.4.2 3.2.7 4 1.1.8.3 2.2.7 3 .8.8.1 2.6.5 4 .8 12.9 2.7 28.8 5.7 30.7 5.7 1.3 0 2.3.4 2.3.8 0 .5 1.4.7 3 .6 1.7-.1 3 .2 3 .8 0 .5.4.7 1 .3 1.1-.7 22 1.7 21.5 2.5-.2.3 2 .5 4.8.6 8.1.2 16.1.7 16.8 1 2.5 1.3 51.9 1.8 70.9.8 6.9-.4 15.1-.8 18.3-.8 3.1-.1 5.7-.5 5.7-.9 0-.5 2.1-.8 4.8-.7 2.6.1 4.9.1 5.2 0 2.2-.7 6.3-1.2 10.6-1.4 2.9 0 5-.5 4.7-.9-.3-.5.9-.6 2.6-.4 1.7.3 3.4.1 3.7-.4.3-.6 1.6-.9 2.7-.8 1.2.1 3-.1 3.9-.5.9-.4 4.2-.8 7.1-.9 3-.1 5.2-.6 4.9-1.1-.3-.5.7-.7 2.2-.4 1.4.3 2.6.1 2.6-.5 0-.5 1.3-.7 2.9-.5 1.7.2 2.8.2 2.6-.2-.6-.9 20.5-5.1 21.8-4.3.5.3.7.2.4-.3-.7-1.2 16.9-5.8 18.4-4.8.8.4.9.3.5-.4-.5-.8 0-1.2 1.3-1.2 1.2 0 2.3.1 2.4.2.2.2 1.1-.3 2-1.1 1-.7 1.7-1 1.7-.6s.8.1 1.7-.6c1.5-1.2 1.6-1.2.8.1-.7 1.2-.6 1.3.7.3.8-.7 1.8-1 2.1-.6.4.3.7.1.7-.6s.8-1.1 1.8-.9c1.1.2 2.5-.2 3.3-.8 2-1.7 12-4.5 13.2-3.7.5.3.7.1.4-.4-.4-.6 1.3-1.6 4.1-2.3 2.6-.7 5.2-1.6 5.7-2 .6-.4 4.8-2.1 9.5-3.8 4.7-1.7 11-4.1 14-5.5 3-1.3 6.3-2.3 7.3-2.1 1.1.1 1.6 0 1.3-.3-.9-.9 6.5-4.5 7.9-3.9.8.3 1.9-.2 2.6-1 1.2-1.5 6.3-4.5 7.4-4.4.3 0 1.9-.7 3.5-1.5 1.7-.9 3.5-1.3 4-1 .5.3 1.2 0 1.7-.7 1.3-2 11.3-6.9 12.5-6.2.6.4.8.3.5-.3-.4-.6 0-1.4.9-1.7 1-.4 1.3-.2.9.7-.4.6 0 .4.9-.7.8-1 2-1.5 2.7-1 .7.4 1 .3.6-.3-.8-1.3 8.9-6.6 10.5-5.7.7.4 1 .4.6-.1-.9-1 2.3-3.4 5.1-4 1.1-.2 2.9-1.3 4-2.4 1.9-1.9 4-2.6 6.3-2.2.5 0 .7-.3.5-.8-.1-.5.1-.8.5-.8.3.1 1.8-.9 3.2-2.2 1.4-1.4 2.6-2 2.6-1.5s.4.4.8-.1c1.3-1.9 7-5.5 8.6-5.5.8 0 1.9-.6 2.3-1.3 1.4-2.4 10.3-7.8 11.5-7.1.6.4.8.3.4-.4-.5-.9 5.8-5.7 7.7-5.7.4 0 1.2-.7 1.7-1.5s1-1.1 1-.5c0 .5.5.2 1.1-.7.5-1 1.5-1.8 2-1.8.6 0 1.7-.6 2.4-1.2 6.5-5.8 15.6-11.9 16.8-11.2.6.4.9.4.5-.1-.7-.7 1.4-3.5 2.6-3.5.3 0 1.4-.8 2.4-1.7 2.9-2.7 10.3-8.7 12.1-9.7.9-.5 2.7-2 4-3.2 1.3-1.3 2.8-2.1 3.4-1.7.5.3.7.1.4-.4-.6-1 3.7-4.7 5.5-4.8.3 0 1-.4 1.5-.9s.2-.6-.7-.2c-1.2.6-1.2.5.1-.6.8-.7 5.3-4.5 10-8.5 4.6-3.9 10.8-9.4 13.8-12.2 2.9-2.8 5.7-4.8 6.2-4.5.5.3.8.1.7-.3-.4-1.2 39.3-40.9 40.4-40.6.4.2.7-.3.5-1-.1-.6.4-1.1 1.1-.9.8.1 1.1-.2.7-.9-.7-1 .8-2.7 13.3-15.6 2.9-3 4.7-5.1 4-4.7-.7.4-.5-.2.6-1.4 1-1.2 2.4-1.9 3-1.5.6.3.8.3.4-.2-.9-.9 2.9-6.6 4.2-6.2.4.1.9-.3 1-.8.5-2.3 2.2-4.5 3.1-4 .5.4.8.3.7-.2-.5-1.4 4.5-7.3 5.5-6.6.6.3.7.1.4-.4-.8-1.3 4.7-8.5 5.7-7.5.4.4.6.2.4-.3-.4-1.4 2.7-5.6 3.6-4.7.4.4.7.2.5-.3-.4-1.8 1.3-4.5 2.8-4.5.8 0 1.2-.4.9-.9-.3-.5.6-2.1 1.9-3.5 1.4-1.5 2.5-2.9 2.5-3.2 0-.7 6.4-8.8 7.3-9.2.4-.2.7-1 .7-1.7 0-.8 1-2.1 2.2-2.9 1.2-.9 1.8-1.6 1.3-1.6-.6 0-.3-.6.6-1.3.9-.7 1.7-1.7 1.9-2.2.5-2.1 2.7-4.4 3.5-3.7.5.4.5.2.2-.4-.8-1.4 2.1-5.6 3.4-4.9.5.3.6-.1.3-.9-.3-.9-.1-1.6.5-1.6s1.1-.6 1.1-1.4c0-.7 1.1-2.1 2.4-2.9 1.3-.9 2.3-2.4 2.2-3.4 0-1 .5-1.7 1.2-1.5.8.1 1.1-.2.7-.7-.7-1.2 2.4-6.3 3.4-5.6.4.2.8-.2.8-.9 0-1.4 4.1-8.6 4.9-8.6.3 0 .2.6-.2 1.2-.4.7-.3.9.1.5.5-.4 1-1.5 1.1-2.4.2-.9 1-2 1.9-2.5.8-.5 1.3-1.3 1-1.8-.7-1.1 6.9-13.2 7.8-12.5.4.3.5.2.2-.1-.7-1.1 2.5-6.5 3.5-5.9.6.4.7-.1.3-1.1-.4-1.2-.3-1.5.5-1 .8.4 1 .2.6-.7-.3-.8.2-1.7 1.1-2.1.9-.3 1.3-1 1-1.6-.3-.5-.1-1 .4-1 .6 0 1-.3.9-.8-.3-1.4 1.4-4.2 2.3-3.6.5.3.6-.2.3-1s.5-2.5 1.8-3.8c1.2-1.2 2.3-2.9 2.3-3.8 0-.8.6-1.4 1.3-1.2.8.1 1.1-.2.8-.7-.8-1.2 5.1-12.3 7-13.4.8-.5 1.2-1.2.9-1.8-.4-.5.6-2.4 2-4.3 1.5-1.9 2.6-3.6 2.5-3.8-.3-.6 2.4-6.3 3.3-6.9.5-.3.8-.9.8-1.3-.2-1.7.1-2.4 1.9-4.4 1.2-1.2 1.8-2.2 1.5-2.2-.8 0 5.6-12.4 6.9-13.2.6-.4.8-.8.3-.8-1 0 2.8-7.3 4.7-8.9.9-.7 1.3-1.7 1-2.2-.8-1.3.6-5 1.7-4.4.5.3.6 0 .4-.8-.3-.7.3-2.1 1.4-3.1 1.1-1 1.8-2.3 1.5-2.7-.3-.5.1-2.1.9-3.6 3-6.1 6.2-12.7 6.2-13.3.2-1.9 1.8-5 2.6-5 .5 0 .8-.3.7-.8-.3-1.6 1.5-6.1 2.3-5.6.5.3.6-.2.3-1-.3-.9-.1-1.6.6-1.6.6 0 .8-.5.5-1-.4-.6-.1-1.8.6-2.6.7-.9 1.5-2.5 1.6-3.7.2-1.2.9-2.4 1.5-2.8.6-.4 1.2-2 1.4-3.5.2-1.5 1-3.1 1.8-3.6s1.3-1.5.9-2.3c-.3-.9 0-2.1.6-2.9.7-.8 1.4-2.4 1.6-3.6.2-1.3 1.1-3 2-4 .8-.9 1.3-1.9.9-2.2-.3-.3.3-2.3 1.2-4.4 2.2-5 2-4.4 2.9-8.2.4-1.7 1.2-3.2 1.8-3.2.6 0 .8-.3.4-.6-.3-.4.5-3.6 1.9-7.3 1.4-3.6 3.2-8.8 4-11.4 1-3 1.9-4.5 2.6-4.1.7.4.8.3.4-.4-.8-1.3 3.3-14.5 4.5-15 .5-.2.5-1 .2-1.9-.5-1.2-.3-1.4.6-.8 1 .5 1.1.2.6-1.4-.3-1.1-.3-2.1.2-2.1s1-1.2 1.1-2.7c.1-1.5.5-2.9 1-3.2.4-.3.8-1.7 1-3.1.1-1.3.7-2.7 1.4-3.1.6-.4.8-1.1.5-1.6-.7-1.2 1.3-8.3 2.4-8.3.4 0 .5-.9.2-2-.3-1.2 0-2 .6-2 .7 0 1-.4.7-.8-.5-.8 1.5-8.5 3.1-12.2.3-.8.8-2.6 1-4 .2-1.4.8-2.6 1.3-2.8.5-.2.6-1 .3-1.8s0-2.1.7-2.9c.7-.8 1-1.5.6-1.5-.3 0-.1-1.2.5-2.8.6-1.5 1.2-3.6 1.3-4.7.7-4.8 1.8-8.5 2.6-8 .4.3.6-.4.3-1.5s.2-3.2 1.2-4.6c1.1-1.8 1.3-2.4.4-1.9-1.1.6-1.1.5-.2-.5.6-.7.9-1.9.6-2.6-.3-.8-.1-1.4.5-1.4s.9-.8.8-1.8c-.2-.9.3-3.7 1-6.2s1.5-6.4 1.9-8.8c.4-2.3 1-4.2 1.4-4.2.4 0 .8-1.5.9-3.3.1-1.8.9-6.4 1.8-10.2.9-3.9 1.7-7.7 1.9-8.5.2-.8.4-1.5.5-1.5.1 0 .4-1.8.6-4 .3-2.2.9-4.1 1.3-4.3.5-.2.7-1.1.4-2.1-.3-1 0-2.2.6-2.5.6-.4.8-2 .4-3.6-.3-1.7-.1-3 .4-3 .6 0 .8-1.1.5-2.5-.2-1.4 0-2.5.5-2.5.8 0 1.2-2.6 1.3-8.8 0-1.5.4-2.1 1.2-1.6.7.4.8.3.4-.4-1-1.7.5-11.3 1.7-10.5.6.3.7.1.3-.6-.8-1.3 3.4-32.2 4.3-31.6.3.1.4-1.7.2-4.1-.1-2.4.1-4.4.5-4.4.8 0 1.3-4.1 1.3-11.8 0-1.9.4-3.1.9-2.8.5.3.7-1.5.5-3.9-.3-2.5-.1-4.5.4-4.5.4 0 .9-2.1.9-4.8.2-5.3 1.2-16.7 2-22.7.3-2.2.6-6.1.6-8.7 0-2.6.4-4.6.7-4.4.3.2.6-2.1.5-5.2 0-3.2.3-10 .7-15.2.4-5.2 1-18.3 1.4-29 .3-10.7.8-20.9 1-22.5.2-1.7.7-34.1 1-72 .3-38 .7-70.4.7-72.1.1-3.1.3-3.1 4.4-3 2.4.1 4-.2 3.7-.8-.3-.5.8-.7 2.5-.4 1.7.2 2.9.1 2.6-.4-.3-.4.5-.9 1.8-1 3.7-.2 4.2-.3 5.6-1.1.6-.5 1.2-.5 1.2-.1 0 .3 1 0 2.3-.8 1.2-.8 3-1.4 4-1.2 1 .1 1.4-.2 1-.9-.4-.7 0-.8 1.1-.4.9.4 1.5.3 1.2-.2-.6-1 4.2-3.3 5.4-2.6.5.3 1.2 0 1.6-.6.5-.8.3-.9-.6-.4-.9.6-1.1.4-.6-.4.5-.7 1.4-1 2.2-.7.8.3 1.3.2 1.1-.2-.1-.4.1-.8.5-1 .4-.1 2.2-1.6 3.9-3.2 1.8-1.6 3.6-2.7 4.1-2.4.5.3.8.2.6-.3-.1-.4 2-3.1 4.8-6 2.7-2.8 5.8-6.2 6.9-7.6 2.5-3 9.9-16.7 9.3-17.3-.3-.2-3-.6-6.2-.9-3.2-.3-6.2-.7-6.7-1.1-.5-.3-2.1-.8-3.6-1-1.4-.3-4.2-1.2-6.2-2s-3.7-1.5-3.9-1.4c-1.4.4-6.2-3.5-6.2-5 0-2.7 2.1-7 3.1-6.4.5.3.6-.2.3-1s-.2-2.1.2-2.8c.5-.7 1-2.4 1.2-3.8.2-1.4.7-2.6 1.2-2.8.5-.2.6-1 .3-1.8s-.2-2.2.2-3.2c.9-2.1.9-12.1 0-14.3-.3-1-.5-2.3-.4-3 .1-.8 0-2.1-.4-2.9-.3-.8-1.1-3.2-1.7-5.2l-1.1-3.8-2.9 2.1c-1.6 1.3-3.3 1.8-4.1 1.4-.8-.5-1-.4-.5.3.4.6-.6 1.8-2.4 2.7-1.6.8-3 1.3-3 .9s-.6-.1-1.3.5c-.8.6-1.7.8-2 .4-.4-.3-.7-.1-.7.6 0 .8-.8 1.1-2 .8-1.1-.3-1.7-.1-1.4.4.3.5-.7.9-2.3.9-4.9 0-7.2.4-6.7 1.2.3.4.1.8-.5.8-3.7 0-3.6 4.1-3.3-141.8.4-190-.3-209.6-9.3-250.7-29.2-134.4-132.7-249-266.1-294.8-26.4-9.1-52.7-15.1-84.4-19.4-11.6-1.6-40.1-1.7-377.5-1.8-200.7-.1-367.7 0-371 .2zm574.5 680.7v6.3l30.3.7c171.5 3.8 279.8 7.7 362.7 13.1 12.4.8 27.4 1.8 33.4 2.2l10.9.6-.7 14.6c-7.4 157.1-69.4 327.4-166 455.6-17.4 23-34.2 42.2-57.5 65.5-39.3 39.2-73 64.6-114.9 86.3l-15.3 7.9-20.7-2.1c-140.2-14.3-323-16.8-478.2-6.6-24.3 1.7-77.5 6.1-88 7.5l-6.5.8-17.1-8.8c-40.3-20.6-75-46.5-112.5-83.9-33.4-33.4-56.5-61.8-83.4-102.6-70-106-118.2-239.6-132.4-367-3.5-31.1-3.7-36-1.2-43.9 1.1-3.7 2.1-7.9 2.1-9.1 0-1.3 1.1-3.2 2.5-4.3 2.7-2.1 3.3-6 1.3-8-.6-.6-.9-1.4-.6-1.8.8-.7 29.8-2.8 76.3-5.3 69.9-3.9 149.6-6.9 239-9.2 24.8-.6 55.4-1.4 68-1.7l23-.7.3-6.3.3-6.2H1875v6.4zm1.4 758.3c3.4 11 4 46.2 1.2 63.8-11.4 71.5-53.5 129.1-117.1 160.5-79.6 39.2-175.9 24.4-239.8-36.8-32.9-31.7-54.2-71.2-62.8-116.7-3.6-18.5-3.7-56.6-.3-70.2l.6-2.3H1667c198.1 0 208.9.1 209.4 1.7z"/></svg>